<svg width="24" height="24" viewBox="0 0 24 24" fill="none" xmlns="http://www.w3.org/2000/svg">
<g clip-path="url(#clip0)">
<path d="M10.2679 4C11.0377 2.66667 12.9623 2.66667 13.7321 4L20.6603 16C21.4301 17.3333 20.4678 19 18.9282 19H5.0718C3.5322 19 2.56995 17.3333 3.33975 16L10.2679 4Z" fill="#FF4949"/>
<path d="M12.498 6.74194L12.344 13.7419H11.28L11.126 6.74194H12.498ZM11.868 16.5839C11.6253 16.5839 11.42 16.4999 11.252 16.3319C11.084 16.1639 11 15.9586 11 15.7159C11 15.4733 11.084 15.2679 11.252 15.0999C11.42 14.9319 11.6253 14.8479 11.868 14.8479C12.1013 14.8479 12.2973 14.9319 12.456 15.0999C12.624 15.2679 12.708 15.4733 12.708 15.7159C12.708 15.9586 12.624 16.1639 12.456 16.3319C12.2973 16.4999 12.1013 16.5839 11.868 16.5839Z" fill="white"/>
</g>
<defs>
<clipPath id="clip0">
<rect width="24" height="24" fill="white"/>
</clipPath>
</defs>
</svg>
