<svg width="183" height="48" viewBox="0 0 183 48" fill="none" xmlns="http://www.w3.org/2000/svg">
<path d="M46.96 32.168C45.136 32.168 43.648 31.776 42.496 30.992C41.36 30.192 40.792 29.064 40.792 27.608C40.792 27.464 40.808 27.248 40.84 26.96H45.112C45.064 27.568 45.208 28.048 45.544 28.4C45.88 28.752 46.392 28.928 47.08 28.928C47.704 28.928 48.192 28.792 48.544 28.52C48.912 28.248 49.096 27.864 49.096 27.368C49.096 26.856 48.864 26.44 48.4 26.12C47.952 25.8 47.248 25.44 46.288 25.04C45.36 24.656 44.6 24.296 44.008 23.96C43.432 23.608 42.928 23.136 42.496 22.544C42.064 21.952 41.848 21.208 41.848 20.312C41.832 19.208 42.104 18.248 42.664 17.432C43.224 16.616 44 15.992 44.992 15.56C45.984 15.128 47.12 14.912 48.4 14.912C49.552 14.912 50.576 15.096 51.472 15.464C52.368 15.816 53.064 16.336 53.56 17.024C54.056 17.696 54.304 18.496 54.304 19.424C54.304 19.664 54.296 19.84 54.28 19.952H49.912C49.928 19.888 49.936 19.792 49.936 19.664C49.936 19.216 49.776 18.856 49.456 18.584C49.152 18.296 48.728 18.152 48.184 18.152C47.608 18.152 47.136 18.296 46.768 18.584C46.416 18.856 46.24 19.232 46.24 19.712C46.24 20.192 46.464 20.6 46.912 20.936C47.36 21.256 48.056 21.632 49 22.064C49.944 22.496 50.712 22.896 51.304 23.264C51.912 23.632 52.432 24.128 52.864 24.752C53.296 25.36 53.512 26.112 53.512 27.008C53.512 28 53.248 28.888 52.72 29.672C52.192 30.456 51.432 31.072 50.44 31.52C49.448 31.952 48.288 32.168 46.96 32.168ZM61.3137 20.504C61.8257 19.88 62.4657 19.376 63.2337 18.992C64.0177 18.608 64.8817 18.416 65.8257 18.416C67.2657 18.416 68.4257 18.888 69.3057 19.832C70.2017 20.776 70.6497 22.056 70.6497 23.672C70.6497 24.168 70.6017 24.704 70.5057 25.28C70.2657 26.656 69.7937 27.872 69.0897 28.928C68.3857 29.968 67.5377 30.776 66.5457 31.352C65.5537 31.912 64.5057 32.192 63.4017 32.192C62.4737 32.192 61.6897 32 61.0497 31.616C60.4097 31.232 59.9377 30.736 59.6337 30.128L58.1697 38.384H54.0657L57.5457 18.608H61.6497L61.3137 20.504ZM66.3537 25.28C66.4017 25.008 66.4257 24.76 66.4257 24.536C66.4257 23.736 66.1937 23.112 65.7297 22.664C65.2817 22.216 64.7057 21.992 64.0017 21.992C63.1857 21.992 62.4417 22.288 61.7697 22.88C61.0977 23.472 60.6657 24.28 60.4737 25.304C60.4257 25.592 60.4017 25.856 60.4017 26.096C60.4017 26.88 60.6257 27.496 61.0737 27.944C61.5217 28.392 62.0977 28.616 62.8017 28.616C63.6177 28.616 64.3617 28.32 65.0337 27.728C65.7217 27.12 66.1617 26.304 66.3537 25.28ZM77.6028 32.192C76.4508 32.192 75.4268 31.96 74.5308 31.496C73.6348 31.032 72.9388 30.376 72.4428 29.528C71.9628 28.68 71.7228 27.696 71.7228 26.576C71.7228 25.056 72.0828 23.672 72.8027 22.424C73.5228 21.176 74.5148 20.2 75.7788 19.496C77.0428 18.776 78.4508 18.416 80.0028 18.416C81.1548 18.416 82.1788 18.656 83.0748 19.136C83.9868 19.6 84.6908 20.256 85.1868 21.104C85.6828 21.952 85.9308 22.936 85.9308 24.056C85.9308 25.592 85.5628 26.984 84.8268 28.232C84.1068 29.464 83.1068 30.432 81.8268 31.136C80.5628 31.84 79.1548 32.192 77.6028 32.192ZM78.1788 28.664C78.8508 28.664 79.4508 28.464 79.9788 28.064C80.5228 27.648 80.9388 27.12 81.2268 26.48C81.5308 25.824 81.6828 25.144 81.6828 24.44C81.6828 23.64 81.4668 23.024 81.0348 22.592C80.6028 22.16 80.0588 21.944 79.4028 21.944C78.7148 21.944 78.1068 22.152 77.5788 22.568C77.0668 22.968 76.6668 23.496 76.3788 24.152C76.0908 24.808 75.9468 25.496 75.9468 26.216C75.9468 27 76.1548 27.608 76.5708 28.04C76.9868 28.456 77.5228 28.664 78.1788 28.664ZM92.788 21.032C93.412 20.232 94.124 19.608 94.924 19.16C95.74 18.696 96.588 18.464 97.468 18.464L96.7 22.808H95.572C94.548 22.808 93.74 23.032 93.148 23.48C92.556 23.912 92.164 24.68 91.972 25.784L90.868 32H86.764L89.116 18.608H93.22L92.788 21.032ZM102.598 27.392C102.582 27.472 102.574 27.576 102.574 27.704C102.574 27.992 102.654 28.2 102.814 28.328C102.99 28.456 103.27 28.52 103.654 28.52H105.118L104.494 32H102.406C99.7176 32 98.3736 30.872 98.3736 28.616C98.3736 28.28 98.4136 27.856 98.4936 27.344L99.4536 22.016H97.8216L98.4216 18.608H100.054L100.63 15.344H104.734L104.158 18.608H106.846L106.246 22.016H103.558L102.598 27.392ZM112.348 32.192C111.292 32.192 110.34 32.024 109.492 31.688C108.66 31.352 108.004 30.888 107.524 30.296C107.044 29.688 106.804 28.992 106.804 28.208C106.804 28.096 106.82 27.896 106.852 27.608H110.812C110.78 28.104 110.924 28.504 111.244 28.808C111.58 29.096 112.052 29.24 112.66 29.24C113.172 29.24 113.596 29.144 113.932 28.952C114.268 28.76 114.436 28.488 114.436 28.136C114.436 27.8 114.252 27.536 113.884 27.344C113.532 27.136 112.94 26.888 112.108 26.6C111.244 26.312 110.516 26.032 109.924 25.76C109.348 25.472 108.852 25.064 108.436 24.536C108.02 24.008 107.812 23.344 107.812 22.544C107.812 21.76 108.044 21.056 108.508 20.432C108.972 19.792 109.62 19.296 110.452 18.944C111.3 18.592 112.276 18.416 113.38 18.416C114.484 18.416 115.444 18.6 116.26 18.968C117.076 19.32 117.708 19.816 118.156 20.456C118.604 21.096 118.828 21.816 118.828 22.616L118.804 22.976H115.084C115.116 22.496 114.972 22.112 114.652 21.824C114.332 21.536 113.876 21.392 113.284 21.392C112.82 21.392 112.436 21.488 112.132 21.68C111.844 21.872 111.7 22.136 111.7 22.472C111.7 22.824 111.892 23.12 112.276 23.36C112.676 23.584 113.292 23.84 114.124 24.128C114.988 24.416 115.7 24.704 116.26 24.992C116.836 25.264 117.324 25.656 117.724 26.168C118.14 26.664 118.348 27.288 118.348 28.04C118.348 28.904 118.084 29.648 117.556 30.272C117.044 30.896 116.332 31.376 115.42 31.712C114.524 32.032 113.5 32.192 112.348 32.192ZM141.762 18.608L135.762 32H131.226L130.65 23.312L126.93 32H122.418L121.146 18.608H125.25L125.442 28.184L129.402 18.608H133.746L134.346 28.184L137.898 18.608H141.762ZM149.304 18.416C151.032 18.416 152.4 18.888 153.408 19.832C154.432 20.76 154.944 22.032 154.944 23.648C154.944 24.176 154.904 24.648 154.824 25.064C154.76 25.432 154.664 25.824 154.536 26.24H145.248C145.232 26.336 145.224 26.488 145.224 26.696C145.224 27.4 145.416 27.936 145.8 28.304C146.184 28.672 146.696 28.856 147.336 28.856C148.36 28.856 149.144 28.424 149.688 27.56H154.056C153.48 28.92 152.544 30.032 151.248 30.896C149.952 31.76 148.496 32.192 146.88 32.192C145.152 32.192 143.768 31.712 142.728 30.752C141.704 29.792 141.192 28.488 141.192 26.84C141.192 26.344 141.24 25.832 141.336 25.304C141.576 23.912 142.072 22.696 142.824 21.656C143.576 20.616 144.512 19.816 145.632 19.256C146.752 18.696 147.976 18.416 149.304 18.416ZM150.792 24.152C150.824 23.928 150.84 23.776 150.84 23.696C150.84 23.056 150.64 22.568 150.24 22.232C149.84 21.88 149.312 21.704 148.656 21.704C147.952 21.704 147.328 21.92 146.784 22.352C146.256 22.768 145.872 23.368 145.632 24.152H150.792ZM156.125 25.28C156.365 23.904 156.837 22.696 157.541 21.656C158.245 20.616 159.093 19.816 160.085 19.256C161.077 18.696 162.125 18.416 163.229 18.416C164.173 18.416 164.965 18.608 165.605 18.992C166.245 19.376 166.709 19.88 166.997 20.504L167.333 18.608H171.437L169.061 32H164.957L165.317 30.104C164.805 30.728 164.157 31.232 163.373 31.616C162.589 32 161.725 32.192 160.781 32.192C159.837 32.192 158.997 31.976 158.261 31.544C157.541 31.112 156.981 30.504 156.581 29.72C156.181 28.92 155.981 27.984 155.981 26.912C155.981 26.4 156.029 25.856 156.125 25.28ZM166.157 25.304C166.205 25.016 166.229 24.752 166.229 24.512C166.229 23.728 165.997 23.112 165.533 22.664C165.085 22.216 164.509 21.992 163.805 21.992C162.989 21.992 162.245 22.288 161.573 22.88C160.901 23.456 160.477 24.256 160.301 25.28C160.253 25.568 160.229 25.832 160.229 26.072C160.229 26.856 160.453 27.48 160.901 27.944C161.365 28.392 161.941 28.616 162.629 28.616C163.445 28.616 164.189 28.32 164.861 27.728C165.533 27.136 165.965 26.328 166.157 25.304ZM178.054 21.032C178.678 20.232 179.39 19.608 180.19 19.16C181.006 18.696 181.854 18.464 182.734 18.464L181.966 22.808H180.838C179.814 22.808 179.006 23.032 178.414 23.48C177.822 23.912 177.43 24.68 177.238 25.784L176.134 32H172.03L174.382 18.608H178.486L178.054 21.032Z" fill="black"/>
<path fill-rule="evenodd" clip-rule="evenodd" d="M30.6347 11.9507C25.1391 6.45508 16.2289 6.45508 10.7332 11.9507C5.23758 17.4464 5.23758 26.3566 10.7332 31.8522C10.7332 31.8522 10.7332 31.8523 10.7332 31.8523L30.6347 11.9507Z" fill="#FF4949"/>
<path fill-rule="evenodd" clip-rule="evenodd" d="M10.1458 36.0493L30.0473 16.1478C35.5429 21.6434 35.5429 30.5536 30.0473 36.0492C24.5516 41.5449 15.6415 41.5449 10.1458 36.0493Z" fill="#FF4949"/>
</svg>
