<?xml version="1.0" encoding="utf-8"?><svg xmlns="http://www.w3.org/2000/svg" xmlns:xlink="http://www.w3.org/1999/xlink"><symbol viewBox="0 0 44 14" id="arrow-long-left" xmlns="http://www.w3.org/2000/svg"><path d="M8.695 1.383L2.062 7.036m0 0L8.82 12.54M2.062 7.036H43"/></symbol><symbol viewBox="0 0 32 32" id="basket" xmlns="http://www.w3.org/2000/svg"><path d="M4.5 10.406h23V23a3.5 3.5 0 01-3.5 3.5H8A3.5 3.5 0 014.5 23V10.406z"/><path d="M9.64 12.5V9.297S9.01 4 16 4c6.989 0 6.36 5.297 6.36 5.297V12.5M11 13.823c0 .684-.591 1.28-1.375 1.28s-1.375-.596-1.375-1.28c0-.683.591-1.28 1.375-1.28S11 13.14 11 13.823zm12.75 0c0 .684-.591 1.28-1.375 1.28S21 14.508 21 13.824c0-.683.591-1.28 1.375-1.28s1.375.597 1.375 1.28z"/></symbol><symbol viewBox="0 0 344.96 344.96" id="check" xmlns="http://www.w3.org/2000/svg"><g data-name="Слой 2"><path d="M321.85 86.24l-40-23.11-23.1-40H212.5L172.48 0l-40 23.11H86.24l-23.11 40-40 23.1v46.21L0 172.48l23.11 40v46.21l40 23.11 23.11 40h46.21l40 23.1 40-23.11h46.21l23.11-40 40-23.11V212.5l23.11-40-23.11-40V86.24zM156.91 243.07a16.79 16.79 0 01-23.34 0l-50.45-50.44a16.19 16.19 0 010-22.89l13.35-13.35a16.19 16.19 0 0122.89 0l25.87 25.87 80.34-80.35a16.19 16.19 0 0122.89 0l13.35 13.35a16.19 16.19 0 010 22.89z" data-name="Capa 1"/></g></symbol><symbol viewBox="0 0 16 10" id="chevron-down" xmlns="http://www.w3.org/2000/svg"><path d="M1 1l7 8 7-8"/></symbol><symbol viewBox="0 0 10 16" id="chevron-left" xmlns="http://www.w3.org/2000/svg"><path d="M8.88 1l-8 7 8 7"/></symbol><symbol viewBox="0 0 10 16" id="chevron-right" xmlns="http://www.w3.org/2000/svg"><path d="M1 15l8-7-8-7"/></symbol><symbol viewBox="0 0 26 26" id="cil_map" xmlns="http://www.w3.org/2000/svg"><path d="M24.297 4.52l-7.56-2.114-7.581 2.136-7.05-2a1.016 1.016 0 00-1.293.977v17.296a1.223 1.223 0 00.886 1.172l7.455 2.116 7.585-2.137 7.16 2.003a1.016 1.016 0 001.288-.979V5.694a1.223 1.223 0 00-.89-1.173zM8.277 22.165l-5.84-1.656V4.325l5.84 1.657v16.182zm7.649-1.657l-6.024 1.696V6.02l6.024-1.697v16.184zm7.636 1.68l-6.011-1.681V4.32l6.012 1.681v16.185z"/></symbol><symbol viewBox="0 0 18 18" id="close" xmlns="http://www.w3.org/2000/svg"><path d="M1 1l16 16M1 17L17 1"/></symbol><symbol viewBox="0 0 27 11" id="croped-vector" xmlns="http://www.w3.org/2000/svg"><path d="M26 0v10H3l4.5-4.5"/></symbol><symbol viewBox="0 0 24 24" id="danger" xmlns="http://www.w3.org/2000/svg"><g clip-path="url(#ajclip0)"><path d="M10.268 4c.77-1.333 2.694-1.333 3.464 0l6.928 12c.77 1.333-.192 3-1.732 3H5.072c-1.54 0-2.502-1.667-1.732-3l6.928-12z"/><path d="M12.498 6.742l-.154 7H11.28l-.154-7h1.372zm-.63 9.842a.838.838 0 01-.616-.252.838.838 0 01-.252-.616c0-.243.084-.448.252-.616a.838.838 0 01.616-.252c.233 0 .43.084.588.252a.838.838 0 01.252.616.838.838 0 01-.252.616.777.777 0 01-.588.252z"/></g><defs><clipPath id="ajclip0"><path d="M0 0h24v24H0z"/></clipPath></defs></symbol><symbol viewBox="0 0 28 16" id="delivery-car" xmlns="http://www.w3.org/2000/svg"><path d="M10.375 10.846c-1.293 0-2.337 1.031-2.337 2.303 0 1.268 1.044 2.3 2.337 2.3 1.292 0 2.337-1.032 2.337-2.3 0-1.272-1.045-2.303-2.337-2.303zm0 3.453a1.16 1.16 0 01-1.169-1.15c0-.636.523-1.15 1.169-1.15s1.168.514 1.168 1.15a1.16 1.16 0 01-1.168 1.15zM28 9.145V11.6c0 .613-.505 1.109-1.127 1.109h-1.206c-.218-1.471-1.507-2.602-3.062-2.602-1.552 0-2.84 1.13-3.058 2.602h-6.113c-.218-1.471-1.507-2.602-3.058-2.602-1.552 0-2.84 1.13-3.059 2.602h-1.51A1.118 1.118 0 014.68 11.6V9.145H28zm-5.392 1.701c-1.293 0-2.34 1.031-2.34 2.303 0 1.268 1.047 2.3 2.34 2.3 1.288 0 2.337-1.032 2.337-2.3 0-1.272-1.049-2.303-2.337-2.303zm0 3.453a1.16 1.16 0 01-1.169-1.15c0-.636.523-1.15 1.169-1.15a1.16 1.16 0 011.168 1.15c0 .632-.526 1.15-1.168 1.15zm4.948-7.627l-4.43-4.31a1.519 1.519 0 00-1.055-.429h-2.236V1.11c0-.615-.503-1.11-1.127-1.11H5.806A1.12 1.12 0 004.68 1.109v.174L.105 1.8 8.21 2.84 0 3.642l8.181 1.145L0 5.485l4.68.868v2.179H28v-.81c0-.395-.162-.772-.444-1.05zm-1.931.145h-4.287a.175.175 0 01-.177-.174V3.386c0-.096.08-.174.177-.174h.815c.045 0 .09.019.124.048l3.468 3.257c.116.107.037.3-.12.3z"/></symbol><symbol viewBox="0 0 32 32" id="edit-icon" xmlns="http://www.w3.org/2000/svg"><path d="M13.6 4H12C8.229 4 6.343 4 5.172 5.172 4 6.343 4 8.229 4 12v1.6M18.4 28H20c3.771 0 5.657 0 6.828-1.172C28 25.657 28 23.771 28 20v-1.6m-24 0V20c0 3.771 0 5.657 1.172 6.828C6.343 28 8.229 28 12 28h1.6M13.473 14.96a.499.499 0 00-.12.196l-1.415 4.242a.5.5 0 00.633.633l4.243-1.415a.5.5 0 00.195-.12L28.323 7.182a.5.5 0 000-.707l-2.829-2.829a.5.5 0 00-.707 0L13.473 14.96z"/></symbol><symbol viewBox="0 0 50 50" id="enter" xmlns="http://www.w3.org/2000/svg"><circle cx="25" cy="25" r="25"/><path d="M36 18v10H13l4.5-4.5"/></symbol><symbol viewBox="0 0 32 32" id="fb" xmlns="http://www.w3.org/2000/svg"><path d="M18.228 9.229h1.391V6.137A14.128 14.128 0 0017.593 6c-2.006 0-3.38 1.61-3.38 4.57v2.722H12v3.457h2.213v8.697h2.714V16.75h2.123l.337-3.457h-2.461v-2.381c0-1 .211-1.683 1.302-1.683z"/></symbol><symbol viewBox="0 0 32 32" id="heart" xmlns="http://www.w3.org/2000/svg"><path d="M15.602 10.336l.398.522.398-.522c.356-.468.969-1.188 1.749-1.788.784-.603 1.69-1.048 2.645-1.048 2.54 0 4.708 2.357 4.708 5.385 0 1.369-.454 2.666-1.271 3.667l-.032.038-.016.03v.001l-.01.011a2.987 2.987 0 01-.174.175l-.005.005-.082.08-.005.005L16 24.799l-7.64-7.625-.033-.056-.056-.051C7.15 16.038 6.5 14.525 6.5 12.885 6.5 9.857 8.668 7.5 11.208 7.5c.955 0 1.861.445 2.645 1.048.78.6 1.393 1.32 1.75 1.788z"/></symbol><symbol viewBox="0 0 20 20" id="inst" xmlns="http://www.w3.org/2000/svg"><g clip-path="url(#apclip0)"><path d="M9.527 4.75c-2.7 0-4.887 2.244-4.887 5.011 0 2.77 2.189 5.011 4.887 5.011 2.7 0 4.887-2.244 4.887-5.011 0-2.77-2.189-5.011-4.887-5.011zm0 8.264c-1.753 0-3.172-1.456-3.172-3.253 0-1.797 1.42-3.252 3.172-3.252 1.752 0 3.172 1.455 3.172 3.252 0 1.797-1.419 3.253-3.172 3.253z"/><path d="M13.45.061c-1.752-.083-6.092-.08-7.846 0-1.541.074-2.9.456-3.997 1.58C-.224 3.519.01 6.05.01 9.76c0 3.799-.207 6.27 1.597 8.12 1.84 1.885 4.343 1.639 7.92 1.639 3.67 0 4.936.002 6.234-.513 1.764-.702 3.096-2.32 3.226-5.224.083-1.797.078-6.247 0-8.045C18.83 2.31 17.036.231 13.451.061zm2.774 16.578c-1.2 1.231-2.866 1.121-6.72 1.121-3.968 0-5.56.06-6.72-1.133-1.338-1.365-1.096-3.556-1.096-6.879 0-4.496-.45-7.734 3.951-7.965 1.011-.036 1.309-.049 3.854-.049l.036.025c4.229 0 7.547-.454 7.746 4.057.046 1.03.056 1.339.056 3.944 0 4.022.074 5.663-1.107 6.879z"/><path d="M14.608 5.723c.63 0 1.142-.524 1.142-1.17 0-.647-.511-1.172-1.142-1.172-.63 0-1.142.525-1.142 1.171 0 .647.511 1.171 1.142 1.171z"/></g><defs><clipPath id="apclip0"><path d="M0 0h19.047v19.53H0z"/></clipPath></defs></symbol><symbol viewBox="0 0 32 32" id="instagram" xmlns="http://www.w3.org/2000/svg"><g clip-path="url(#aqclip0)"><path d="M15.527 10.75c-2.7 0-4.887 2.245-4.887 5.011 0 2.77 2.188 5.011 4.887 5.011 2.7 0 4.887-2.244 4.887-5.01 0-2.77-2.189-5.012-4.887-5.012zm0 8.264c-1.753 0-3.172-1.456-3.172-3.253 0-1.797 1.42-3.252 3.172-3.252 1.752 0 3.172 1.455 3.172 3.252 0 1.797-1.419 3.253-3.172 3.253z"/><path d="M19.45 6.061c-1.752-.083-6.092-.08-7.846 0-1.541.074-2.9.456-3.997 1.58C5.776 9.519 6.01 12.05 6.01 15.76c0 3.799-.207 6.27 1.597 8.12 1.84 1.885 4.343 1.639 7.92 1.639 3.67 0 4.936.002 6.234-.513 1.764-.702 3.096-2.32 3.226-5.224.083-1.797.078-6.247 0-8.045-.157-3.428-1.951-5.507-5.536-5.677zm2.774 16.578c-1.2 1.231-2.866 1.121-6.72 1.121-3.968 0-5.56.06-6.72-1.133-1.338-1.365-1.096-3.556-1.096-6.879 0-4.496-.45-7.734 3.951-7.965 1.011-.036 1.309-.049 3.854-.049l.036.025c4.229 0 7.547-.454 7.746 4.057.046 1.03.056 1.339.056 3.944 0 4.022.074 5.663-1.107 6.879z"/><path d="M20.608 11.723c.63 0 1.142-.524 1.142-1.17 0-.647-.511-1.172-1.142-1.172-.63 0-1.142.525-1.142 1.171 0 .647.511 1.171 1.142 1.171z"/></g><defs><clipPath id="aqclip0"><path transform="translate(6 6)" d="M0 0h19.047v19.53H0z"/></clipPath></defs></symbol><symbol viewBox="0 0 32 32" id="log-out" xmlns="http://www.w3.org/2000/svg"><path d="M19 16H3m0 0l3.879 4M3 16l3.879-4M9 22.6V25a2 2 0 002 2h10.667a2 2 0 002-2V7a2 2 0 00-2-2H11a2 2 0 00-2 2v2.4"/></symbol><symbol viewBox="0 0 40 44" id="logo" xmlns="http://www.w3.org/2000/svg"><path fill-rule="evenodd" clip-rule="evenodd" d="M29.852 9.95c-5.495-5.495-14.406-5.495-19.901 0-5.496 5.496-5.496 14.407 0 19.902L29.852 9.951zM9.363 34.05l19.902-19.902c5.495 5.496 5.495 14.406 0 19.901-5.496 5.496-14.406 5.496-19.902 0z"/></symbol><symbol viewBox="0 0 15 20" id="mark" xmlns="http://www.w3.org/2000/svg"><path d="M7.5 0C3.364 0 0 3.25 0 7.243c0 4.957 6.712 12.233 6.998 12.54a.692.692 0 001.004 0C8.288 19.477 15 12.2 15 7.244 15 3.25 11.636 0 7.5 0zm0 10.887c-2.08 0-3.773-1.634-3.773-3.644C3.727 5.233 5.419 3.6 7.5 3.6c2.08 0 3.773 1.635 3.773 3.644 0 2.01-1.692 3.644-3.773 3.644z"/></symbol><symbol viewBox="0 0 26 16" id="pass-eye" xmlns="http://www.w3.org/2000/svg"><path d="M19.736 4.463l4.646 3.122a.5.5 0 010 .83l-4.647 3.123a12 12 0 01-13.312.049L1.63 8.417a.5.5 0 010-.834l4.791-3.17a12 12 0 0113.314.05z"/><path d="M18.5 8a5.5 5.5 0 11-11 0 5.5 5.5 0 0111 0z"/><path d="M15.05 7.95a2.05 2.05 0 11-4.1 0 2.05 2.05 0 014.1 0z"/></symbol><symbol viewBox="0 0 25 10" id="pass-eye-closed" xmlns="http://www.w3.org/2000/svg"><path d="M23.502.749L18.654 3.95A12 12 0 015.499 4L.5.749M1.46 1.557l-.958 1m3.748.92l-1.833 2.08m4.468-.208L5.77 7.926m4.746-1.486l-.307 2.811m12.333-7.694l.958 1m-3.082.92l1.142 1.41m-3.775.462L18.9 7.926M14.154 6.44l.307 2.811"/></symbol><symbol viewBox="0 0 32 32" id="pdf" xmlns="http://www.w3.org/2000/svg"><rect x="6.5" y="4.5" width="19" height="23" rx="1.5"/><path d="M9.136 23.064a.853.853 0 01-.592-.208.705.705 0 01-.224-.528c0-.213.075-.392.224-.536a.834.834 0 01.592-.216c.235 0 .427.072.576.216a.703.703 0 01.232.536.694.694 0 01-.232.528.813.813 0 01-.576.208zm3.066-3.896c.133-.208.318-.376.552-.504.235-.128.51-.192.824-.192.368 0 .702.093 1 .28.299.187.534.453.704.8.176.347.264.75.264 1.208 0 .459-.088.864-.264 1.216a1.96 1.96 0 01-.704.808c-.298.187-.632.28-1 .28-.31 0-.584-.064-.824-.192a1.512 1.512 0 01-.552-.496v2.752h-1.368v-6.592h1.368v.632zm1.952 1.592c0-.341-.096-.608-.288-.8a.919.919 0 00-.696-.296.936.936 0 00-.696.296c-.187.197-.28.467-.28.808s.093.61.28.808a.936.936 0 00.696.296.936.936 0 00.696-.296c.192-.203.288-.475.288-.816zm1.918 0c0-.459.085-.861.256-1.208.176-.347.413-.613.712-.8.299-.187.632-.28 1-.28.293 0 .56.061.8.184.245.123.437.288.576.496V17.08h1.368V23h-1.368v-.64a1.387 1.387 0 01-.552.512c-.235.128-.51.192-.824.192-.368 0-.701-.093-1-.28a2.025 2.025 0 01-.712-.808 2.754 2.754 0 01-.256-1.216zm3.344.008c0-.341-.096-.61-.288-.808a.91.91 0 00-.688-.296.936.936 0 00-.696.296c-.187.192-.28.459-.28.8s.093.613.28.816a.936.936 0 00.696.296.91.91 0 00.688-.296c.192-.197.288-.467.288-.808zm4.677-1.096h-.735V23h-1.369v-3.328h-.495v-1.136h.495v-.128c0-.55.158-.965.473-1.248.314-.288.776-.432 1.384-.432.1 0 .175.003.224.008v1.16c-.262-.016-.446.021-.553.112-.106.09-.16.253-.16.488v.04h.736v1.136z"/></symbol><symbol viewBox="0 0 32 32" id="refresh-icon" xmlns="http://www.w3.org/2000/svg"><path d="M15 24c-3.866 0-7-3.582-7-8s3.134-8 7-8l-2 3m4.5-3c3.866 0 7 3.582 7 8s-3.134 8-7 8l2-3"/></symbol><symbol viewBox="0 0 24 20" id="return-arrows" xmlns="http://www.w3.org/2000/svg"><path d="M21 15H2m0 0l3.879 4M2 15l3.879-4M2.5 5H22m0 0l-3.879-4M22 5l-3.879 4"/></symbol><symbol viewBox="0 0 16 24" id="sand-clock" xmlns="http://www.w3.org/2000/svg"><path d="M.635 22.875h.583v-1.342c0-.31.284-.563.635-.563h.688v-4.498c0-1.452.826-2.784 2.21-3.562l1.59-.896-.088-.079-1.503-.845c-1.383-.778-2.209-2.11-2.209-3.562V3.029h-.688c-.35 0-.635-.251-.635-.562V1.125H.635C.285 1.125 0 .873 0 .563 0 .252.284 0 .635 0h14.73c.35 0 .635.252.635.563 0 .31-.284.562-.635.562h-.583v1.342c0 .31-.284.562-.635.562h-.688v4.5c0 1.451-.826 2.783-2.21 3.561l-1.315.74-.252.198 1.568.882c1.383.778 2.209 2.11 2.209 3.562v4.499h.688c.35 0 .635.251.635.562v1.342h.583c.35 0 .635.252.635.562 0 .311-.284.563-.635.563H.635C.285 24 0 23.748 0 23.437c0-.31.284-.562.635-.562zm3.176-6.403v.159l3.554-1.245v-2.625a1.146 1.146 0 01-.118.077L5.43 13.86c-1.014.57-1.62 1.547-1.62 2.612zm0-13.443v4.5c0 .473.12.93.343 1.34h7.691c.223-.41.344-.867.344-1.341V3.029H3.81zm6.758 10.83l-1.816-1.021a1.18 1.18 0 01-.118-.077v2.627l3.554 1.243v-.16c0-1.064-.606-2.04-1.62-2.611z"/></symbol><symbol viewBox="0 0 32 32" id="search" xmlns="http://www.w3.org/2000/svg"><g clip-path="url(#baclip0)"><circle cx="14.205" cy="14.205" r="7.705"/><path d="M19.333 19.333L26 26"/></g><defs><clipPath id="baclip0"><path transform="translate(6 6)" d="M0 0h20v20H0z"/></clipPath></defs></symbol><symbol viewBox="0 0 32 32" id="share" xmlns="http://www.w3.org/2000/svg"><g clip-path="url(#bbclip0)"><circle cx="22" cy="9" r="2.5"/><circle cx="11" cy="16" r="2.5"/><path d="M13 14.5l7-4m-.018 11.531l-6.964-4.062"/><circle cx="22" cy="23" r="2.5"/></g><defs><clipPath id="bbclip0"><path transform="translate(8 6)" d="M0 0h17v20H0z"/></clipPath></defs></symbol><symbol viewBox="0 0 32 32" id="stat" xmlns="http://www.w3.org/2000/svg"><g clip-path="url(#bcclip0)"><path d="M21.327 6.5h3.444v19h-3.444zm-6.913 5.185h3.444V25.5h-3.444zM7.5 16.624h3.444V25.5H7.5z"/></g><defs><clipPath id="bcclip0"><path transform="translate(7 6)" d="M0 0h18.271v20H0z"/></clipPath></defs></symbol><symbol viewBox="0 0 32 32" id="telegram" xmlns="http://www.w3.org/2000/svg"><path d="M13.848 19.069l-.331 4.689c.473 0 .678-.205.924-.451l2.22-2.137 4.598 3.393c.843.474 1.437.224 1.665-.782L25.942 9.53h.001c.268-1.257-.45-1.748-1.272-1.44L6.929 14.934c-1.211.474-1.193 1.154-.206 1.462l4.536 1.421 10.536-6.643c.495-.33.946-.147.575.184l-8.522 7.71z"/></symbol><symbol viewBox="0 0 32 32" id="user" xmlns="http://www.w3.org/2000/svg"><path d="M9.175 24.527l3.433-1.872c.472-.258.765-.752.765-1.289v-1.424l-.101-.134a7.66 7.66 0 01-1.257-2.595l-.04-.159-.128-.104a1.079 1.079 0 01-.398-.838v-1.538c0-.254.093-.504.264-.703l.12-.14v-2.238l-.002-.025c-.018-.184-.083-1.277.696-2.165.669-.764 1.797-1.205 3.473-1.205s2.804.441 3.473 1.205c.78.889.714 1.98.696 2.166l-.003.025v2.236l.121.14c.17.199.264.449.264.703v1.539c0 .422-.24.796-.62.976l-.189.09-.069.198a8.344 8.344 0 01-1.07 2.098 6.661 6.661 0 01-.249.329l-.111.138v1.46c0 .558.312 1.063.81 1.313l3.675 1.837c.037.018.075.038.112.06v.65a7.81 7.81 0 01-.3.218c-.319.222-.792.521-1.403.821A11.657 11.657 0 0116 27.5a11.61 11.61 0 01-5.16-1.224 11.059 11.059 0 01-1.421-.839 8.034 8.034 0 01-.31-.227v-.646l.066-.037z"/><circle cx="16" cy="16" r="11.5"/></symbol><symbol viewBox="0 0 32 32" id="vaste" xmlns="http://www.w3.org/2000/svg"><g clip-path="url(#bfclip0)"><path d="M8.222 28L6 10h20l-2.222 18H8.222zM26 7h-5.79M6 7h5.79m0 0l1.15-1.367a4 4 0 016.12 0L20.21 7m-8.42 0h8.42M16 26V12m4 14l.5-7 .5-7m-9 14l-1-14"/></g><defs><clipPath id="bfclip0"><path transform="translate(5 3)" d="M0 0h22v26H0z"/></clipPath></defs></symbol><symbol viewBox="0 0 32 16" id="video-consult" xmlns="http://www.w3.org/2000/svg"><rect width="24" height="16" rx="4"/><path d="M24 8l8-7v14l-8-7z"/></symbol><symbol viewBox="0 0 26 16" id="views" xmlns="http://www.w3.org/2000/svg"><path d="M19.736 4.463l4.646 3.122a.5.5 0 010 .83l-4.647 3.123a12 12 0 01-13.312.049L1.63 8.417a.5.5 0 010-.834l4.791-3.17a12 12 0 0113.314.05z"/><path d="M18.5 8a5.5 5.5 0 11-11 0 5.5 5.5 0 0111 0z"/><path d="M15.05 7.95a2.05 2.05 0 11-4.1 0 2.05 2.05 0 014.1 0z"/></symbol></svg>