<?xml version="1.0" encoding="utf-8"?><svg xmlns="http://www.w3.org/2000/svg" xmlns:xlink="http://www.w3.org/1999/xlink"><symbol viewBox="0 0 44 14" id="arrow-long-left" xmlns="http://www.w3.org/2000/svg"><path d="M8.695 1.383L2.062 7.036m0 0L8.82 12.54M2.062 7.036H43"/></symbol><symbol viewBox="0 0 24 24" id="basket" xmlns="http://www.w3.org/2000/svg"><path d="M.5 7.406h23V20a3.5 3.5 0 01-3.5 3.5H4A3.5 3.5 0 01.5 20V7.406z"/><path d="M5.64 9.5V6.297S5.01 1 12 1c6.989 0 6.36 5.297 6.36 5.297V9.5M7 10.823c0 .684-.591 1.28-1.375 1.28s-1.375-.596-1.375-1.28c0-.683.591-1.28 1.375-1.28S7 10.14 7 10.823zm12.75 0c0 .684-.591 1.28-1.375 1.28S17 11.508 17 10.824c0-.683.591-1.28 1.375-1.28s1.375.597 1.375 1.28z"/></symbol><symbol viewBox="0 0 344.96 344.96" id="check" xmlns="http://www.w3.org/2000/svg"><g data-name="Слой 2"><path d="M321.85 86.24l-40-23.11-23.1-40H212.5L172.48 0l-40 23.11H86.24l-23.11 40-40 23.1v46.21L0 172.48l23.11 40v46.21l40 23.11 23.11 40h46.21l40 23.1 40-23.11h46.21l23.11-40 40-23.11V212.5l23.11-40-23.11-40V86.24zM156.91 243.07a16.79 16.79 0 01-23.34 0l-50.45-50.44a16.19 16.19 0 010-22.89l13.35-13.35a16.19 16.19 0 0122.89 0l25.87 25.87 80.34-80.35a16.19 16.19 0 0122.89 0l13.35 13.35a16.19 16.19 0 010 22.89z" data-name="Capa 1"/></g></symbol><symbol viewBox="0 0 18 18" id="close" xmlns="http://www.w3.org/2000/svg"><path d="M1 1l16 16M1 17L17 1"/></symbol><symbol viewBox="0 0 50 50" id="enter" xmlns="http://www.w3.org/2000/svg"><circle cx="25" cy="25" r="25"/><path d="M36 18v10H13l4.5-4.5"/></symbol><symbol viewBox="0 0 32 32" id="fb" xmlns="http://www.w3.org/2000/svg"><path d="M18.228 9.229h1.391V6.137A14.128 14.128 0 0017.593 6c-2.006 0-3.38 1.61-3.38 4.57v2.722H12v3.457h2.213v8.697h2.714V16.75h2.123l.337-3.457h-2.461v-2.381c0-1 .211-1.683 1.302-1.683z"/></symbol><symbol viewBox="0 0 21 19" id="heart" xmlns="http://www.w3.org/2000/svg"><path d="M10.402 3.336l.398.522.398-.522c.356-.468.969-1.188 1.749-1.788C13.73.945 14.637.5 15.592.5c2.54 0 4.708 2.357 4.708 5.385 0 1.369-.454 2.666-1.271 3.667l-.032.038-.016.03v.001l-.01.011a2.94 2.94 0 01-.173.175l-.005.005-.083.08-.005.005-7.905 7.902-7.64-7.625-.033-.056-.056-.051C1.95 9.038 1.3 7.525 1.3 5.885 1.3 2.857 3.468.5 6.008.5c.955 0 1.862.445 2.645 1.048.78.6 1.393 1.32 1.75 1.788z"/></symbol><symbol viewBox="0 0 20 20" id="inst" xmlns="http://www.w3.org/2000/svg"><g clip-path="url(#hclip0)"><path d="M9.527 4.75c-2.7 0-4.887 2.244-4.887 5.011 0 2.77 2.189 5.011 4.887 5.011 2.7 0 4.887-2.244 4.887-5.011 0-2.77-2.189-5.011-4.887-5.011zm0 8.264c-1.753 0-3.172-1.456-3.172-3.253 0-1.797 1.42-3.252 3.172-3.252 1.752 0 3.172 1.455 3.172 3.252 0 1.797-1.419 3.253-3.172 3.253z"/><path d="M13.45.061c-1.752-.083-6.092-.08-7.846 0-1.541.074-2.9.456-3.997 1.58C-.224 3.519.01 6.05.01 9.76c0 3.799-.207 6.27 1.597 8.12 1.84 1.885 4.343 1.639 7.92 1.639 3.67 0 4.936.002 6.234-.513 1.764-.702 3.096-2.32 3.226-5.224.083-1.797.078-6.247 0-8.045C18.83 2.31 17.036.231 13.451.061zm2.774 16.578c-1.2 1.231-2.866 1.121-6.72 1.121-3.968 0-5.56.06-6.72-1.133-1.338-1.365-1.096-3.556-1.096-6.879 0-4.496-.45-7.734 3.951-7.965 1.011-.036 1.309-.049 3.854-.049l.036.025c4.229 0 7.547-.454 7.746 4.057.046 1.03.056 1.339.056 3.944 0 4.022.074 5.663-1.107 6.879z"/><path d="M14.608 5.723c.63 0 1.142-.524 1.142-1.17 0-.647-.511-1.172-1.142-1.172-.63 0-1.142.525-1.142 1.171 0 .647.511 1.171 1.142 1.171z"/></g><defs><clipPath id="hclip0"><path d="M0 0h19.047v19.53H0z"/></clipPath></defs></symbol><symbol viewBox="0 0 32 32" id="instagram" xmlns="http://www.w3.org/2000/svg"><g clip-path="url(#iclip0)"><path d="M15.527 10.75c-2.7 0-4.887 2.245-4.887 5.011 0 2.77 2.188 5.011 4.887 5.011 2.7 0 4.887-2.244 4.887-5.01 0-2.77-2.189-5.012-4.887-5.012zm0 8.264c-1.753 0-3.172-1.456-3.172-3.253 0-1.797 1.42-3.252 3.172-3.252 1.752 0 3.172 1.455 3.172 3.252 0 1.797-1.419 3.253-3.172 3.253z"/><path d="M19.45 6.061c-1.752-.083-6.092-.08-7.846 0-1.541.074-2.9.456-3.997 1.58C5.776 9.519 6.01 12.05 6.01 15.76c0 3.799-.207 6.27 1.597 8.12 1.84 1.885 4.343 1.639 7.92 1.639 3.67 0 4.936.002 6.234-.513 1.764-.702 3.096-2.32 3.226-5.224.083-1.797.078-6.247 0-8.045-.157-3.428-1.951-5.507-5.536-5.677zm2.774 16.578c-1.2 1.231-2.866 1.121-6.72 1.121-3.968 0-5.56.06-6.72-1.133-1.338-1.365-1.096-3.556-1.096-6.879 0-4.496-.45-7.734 3.951-7.965 1.011-.036 1.309-.049 3.854-.049l.036.025c4.229 0 7.547-.454 7.746 4.057.046 1.03.056 1.339.056 3.944 0 4.022.074 5.663-1.107 6.879z"/><path d="M20.608 11.723c.63 0 1.142-.524 1.142-1.17 0-.647-.511-1.172-1.142-1.172-.63 0-1.142.525-1.142 1.171 0 .647.511 1.171 1.142 1.171z"/></g><defs><clipPath id="iclip0"><path transform="translate(6 6)" d="M0 0h19.047v19.53H0z"/></clipPath></defs></symbol><symbol viewBox="0 0 40 44" id="logo" xmlns="http://www.w3.org/2000/svg"><path fill-rule="evenodd" clip-rule="evenodd" d="M29.852 9.95c-5.495-5.495-14.406-5.495-19.901 0-5.496 5.496-5.496 14.407 0 19.902L29.852 9.951zM9.363 34.05l19.902-19.902c5.495 5.496 5.495 14.406 0 19.901-5.496 5.496-14.406 5.496-19.902 0z"/></symbol><symbol viewBox="0 0 15 20" id="mark" xmlns="http://www.w3.org/2000/svg"><path d="M7.5 0C3.364 0 0 3.25 0 7.243c0 4.957 6.712 12.233 6.998 12.54a.692.692 0 001.004 0C8.288 19.477 15 12.2 15 7.244 15 3.25 11.636 0 7.5 0zm0 10.887c-2.08 0-3.773-1.634-3.773-3.644C3.727 5.233 5.419 3.6 7.5 3.6c2.08 0 3.773 1.635 3.773 3.644 0 2.01-1.692 3.644-3.773 3.644z"/></symbol><symbol viewBox="0 0 20 20" id="search" xmlns="http://www.w3.org/2000/svg"><g clip-path="url(#lclip0)"><circle cx="8.205" cy="8.205" r="7.705"/><path d="M13.333 13.333L20 20"/></g><defs><clipPath id="lclip0"><path d="M0 0h20v20H0z"/></clipPath></defs></symbol><symbol viewBox="0 0 17 20" id="share" xmlns="http://www.w3.org/2000/svg"><g clip-path="url(#mclip0)"><circle cx="14" cy="3" r="2.5"/><circle cx="3" cy="10" r="2.5"/><path d="M5 8.5l7-4m-.018 11.531L5.018 11.97"/><circle cx="14" cy="17" r="2.5"/></g><defs><clipPath id="mclip0"><path d="M0 0h17v20H0z"/></clipPath></defs></symbol><symbol viewBox="0 0 20 20" id="stat" xmlns="http://www.w3.org/2000/svg"><g clip-path="url(#nclip0)"><path d="M15.235.5h3.444v19h-3.444zM8.321 5.685h3.444V19.5H8.321zm-6.913 4.938h3.444v8.876H1.408z"/></g><defs><clipPath id="nclip0"><path transform="translate(.908)" d="M0 0h18.271v20H0z"/></clipPath></defs></symbol><symbol viewBox="0 0 32 32" id="telegram" xmlns="http://www.w3.org/2000/svg"><path d="M13.848 19.069l-.331 4.689c.473 0 .678-.205.924-.451l2.22-2.137 4.598 3.393c.843.474 1.437.224 1.665-.782L25.942 9.53h.001c.268-1.257-.45-1.748-1.272-1.44L6.929 14.934c-1.211.474-1.193 1.154-.206 1.462l4.536 1.421 10.536-6.643c.495-.33.946-.147.575.184l-8.522 7.71z"/></symbol><symbol viewBox="0 0 24 24" id="user" xmlns="http://www.w3.org/2000/svg"><path d="M15.054 18.715l3.675 1.837c.037.018.074.038.111.06v.65a7.81 7.81 0 01-.3.218c-.318.222-.792.521-1.403.821A11.657 11.657 0 0112 23.5a11.61 11.61 0 01-5.16-1.224 11.056 11.056 0 01-1.421-.839 8.025 8.025 0 01-.309-.227v-.646l.065-.037 3.433-1.872c.472-.258.765-.752.765-1.289v-1.424l-.101-.134a7.658 7.658 0 01-1.257-2.595l-.04-.159-.128-.104a1.079 1.079 0 01-.398-.838v-1.539c0-.253.093-.503.264-.702l.12-.14V7.493l-.002-.025c-.018-.184-.083-1.277.696-2.165.669-.763 1.797-1.204 3.473-1.204s2.804.441 3.473 1.205c.78.889.714 1.98.696 2.166l-.003.025V9.73l.121.14c.17.199.264.449.264.703v1.539c0 .422-.24.796-.62.976l-.189.09-.068.198a8.347 8.347 0 01-1.071 2.098 6.661 6.661 0 01-.249.329l-.111.138v1.46c0 .558.312 1.063.811 1.313z"/><circle cx="12" cy="12" r="11.5"/></symbol><symbol viewBox="0 0 26 16" id="views" xmlns="http://www.w3.org/2000/svg"><path d="M19.736 4.463l4.646 3.122a.5.5 0 010 .83l-4.647 3.123a12 12 0 01-13.312.049L1.63 8.417a.5.5 0 010-.834l4.791-3.17a12 12 0 0113.314.05z"/><path d="M18.5 8a5.5 5.5 0 11-11 0 5.5 5.5 0 0111 0z"/><path d="M15.05 7.95a2.05 2.05 0 11-4.1 0 2.05 2.05 0 014.1 0z"/></symbol></svg>