<?xml version="1.0" encoding="utf-8"?><svg xmlns="http://www.w3.org/2000/svg" xmlns:xlink="http://www.w3.org/1999/xlink"><symbol viewBox="0 0 344.96 344.96" id="check" xmlns="http://www.w3.org/2000/svg"><g data-name="Слой 2"><path d="M321.85 86.24l-40-23.11-23.1-40H212.5L172.48 0l-40 23.11H86.24l-23.11 40-40 23.1v46.21L0 172.48l23.11 40v46.21l40 23.11 23.11 40h46.21l40 23.1 40-23.11h46.21l23.11-40 40-23.11V212.5l23.11-40-23.11-40V86.24zM156.91 243.07a16.79 16.79 0 01-23.34 0l-50.45-50.44a16.19 16.19 0 010-22.89l13.35-13.35a16.19 16.19 0 0122.89 0l25.87 25.87 80.34-80.35a16.19 16.19 0 0122.89 0l13.35 13.35a16.19 16.19 0 010 22.89z" data-name="Capa 1"/></g></symbol><symbol viewBox="0 0 8 20" id="fb" xmlns="http://www.w3.org/2000/svg"><path d="M6.228 3.229H7.62V.137A14.125 14.125 0 005.593 0c-2.006 0-3.38 1.61-3.38 4.57v2.722H0v3.457h2.213v8.697h2.714V10.75H7.05l.337-3.457H4.926V4.912c0-1 .211-1.683 1.302-1.683z"/></symbol><symbol viewBox="0 0 20 20" id="inst" xmlns="http://www.w3.org/2000/svg"><g clip-path="url(#cclip0)"><path d="M9.527 4.75c-2.7 0-4.887 2.244-4.887 5.011 0 2.77 2.189 5.011 4.887 5.011 2.7 0 4.887-2.244 4.887-5.011 0-2.77-2.189-5.011-4.887-5.011zm0 8.264c-1.753 0-3.172-1.456-3.172-3.253 0-1.797 1.42-3.252 3.172-3.252 1.752 0 3.172 1.455 3.172 3.252 0 1.797-1.419 3.253-3.172 3.253z"/><path d="M13.45.061c-1.752-.083-6.092-.08-7.846 0-1.541.074-2.9.456-3.997 1.58C-.224 3.519.01 6.05.01 9.76c0 3.799-.207 6.27 1.597 8.12 1.84 1.885 4.343 1.639 7.92 1.639 3.67 0 4.936.002 6.234-.513 1.764-.702 3.096-2.32 3.226-5.224.083-1.797.078-6.247 0-8.045C18.83 2.31 17.036.231 13.451.061zm2.774 16.578c-1.2 1.231-2.866 1.121-6.72 1.121-3.968 0-5.56.06-6.72-1.133-1.338-1.365-1.096-3.556-1.096-6.879 0-4.496-.45-7.734 3.951-7.965 1.011-.036 1.309-.049 3.854-.049l.036.025c4.229 0 7.547-.454 7.746 4.057.046 1.03.056 1.339.056 3.944 0 4.022.074 5.663-1.107 6.879z"/><path d="M14.608 5.723c.63 0 1.142-.524 1.142-1.17 0-.647-.511-1.172-1.142-1.172-.63 0-1.142.525-1.142 1.171 0 .647.511 1.171 1.142 1.171z"/></g><defs><clipPath id="cclip0"><path d="M0 0h19.047v19.53H0z"/></clipPath></defs></symbol><symbol viewBox="0 0 40 44" id="logo" xmlns="http://www.w3.org/2000/svg"><path fill-rule="evenodd" clip-rule="evenodd" d="M29.852 9.95c-5.495-5.495-14.406-5.495-19.901 0-5.496 5.496-5.496 14.407 0 19.902L29.852 9.951zM9.363 34.05l19.902-19.902c5.495 5.496 5.495 14.406 0 19.901-5.496 5.496-14.406 5.496-19.902 0z"/></symbol><symbol viewBox="0 0 17 20" id="share" xmlns="http://www.w3.org/2000/svg"><g clip-path="url(#eclip0)"><circle cx="14" cy="3" r="2.5"/><circle cx="3" cy="10" r="2.5"/><path d="M5 8.5l7-4m-.018 11.531L5.018 11.97"/><circle cx="14" cy="17" r="2.5"/></g><defs><clipPath id="eclip0"><path d="M0 0h17v20H0z"/></clipPath></defs></symbol><symbol viewBox="0 0 20 17" id="telegram" xmlns="http://www.w3.org/2000/svg"><path d="M7.848 11.069l-.331 4.689c.473 0 .678-.205.924-.451l2.22-2.137 4.598 3.393c.843.474 1.437.224 1.665-.782L19.942 1.53h.001c.268-1.257-.45-1.748-1.272-1.44L.929 6.934C-.282 7.408-.264 8.088.723 8.396l4.536 1.422 10.536-6.644c.496-.33.946-.147.575.184l-8.522 7.71z"/></symbol><symbol viewBox="0 0 26 16" id="views" xmlns="http://www.w3.org/2000/svg"><path d="M19.736 4.463l4.646 3.122a.5.5 0 010 .83l-4.647 3.123a12 12 0 01-13.312.049L1.63 8.417a.5.5 0 010-.834l4.791-3.17a12 12 0 0113.314.05z"/><path d="M18.5 8a5.5 5.5 0 11-11 0 5.5 5.5 0 0111 0z"/><path d="M15.05 7.95a2.05 2.05 0 11-4.1 0 2.05 2.05 0 014.1 0z"/></symbol></svg>