<svg width="32" height="32" viewBox="0 0 32 32" fill="none" xmlns="http://www.w3.org/2000/svg">
<path d="M4.5 10.4058H27.5V23C27.5 24.933 25.933 26.5 24 26.5H8C6.067 26.5 4.5 24.933 4.5 23V10.4058Z" stroke="#287EFF"/>
<path d="M9.63959 12.5L9.63959 9.2967C9.63959 9.2967 9.0114 4 16 4C22.9886 4 22.3604 9.2967 22.3604 9.2967V12.5" stroke="#287EFF"/>
<path d="M11 13.8232C11 14.5065 10.409 15.1039 9.625 15.1039C8.84097 15.1039 8.25 14.5065 8.25 13.8232C8.25 13.14 8.84097 12.5426 9.625 12.5426C10.409 12.5426 11 13.14 11 13.8232Z" stroke="#287EFF"/>
<path d="M23.75 13.8232C23.75 14.5065 23.159 15.1039 22.375 15.1039C21.591 15.1039 21 14.5065 21 13.8232C21 13.14 21.591 12.5426 22.375 12.5426C23.159 12.5426 23.75 13.14 23.75 13.8232Z" stroke="#287EFF"/>
</svg>
