<svg width="24" height="24" viewBox="0 0 24 24" fill="none" xmlns="http://www.w3.org/2000/svg">
<path d="M0.5 7.40579H23.5V20C23.5 21.933 21.933 23.5 20 23.5H4C2.067 23.5 0.5 21.933 0.5 20V7.40579Z" stroke="#287EFF"/>
<path d="M5.63959 9.5L5.63959 6.2967C5.63959 6.2967 5.0114 1 12 1C18.9886 1 18.3604 6.2967 18.3604 6.2967V9.5" stroke="#287EFF"/>
<path d="M7 10.8232C7 11.5065 6.40903 12.1039 5.625 12.1039C4.84097 12.1039 4.25 11.5065 4.25 10.8232C4.25 10.14 4.84097 9.5426 5.625 9.5426C6.40903 9.5426 7 10.14 7 10.8232Z" stroke="#287EFF"/>
<path d="M19.75 10.8232C19.75 11.5065 19.159 12.1039 18.375 12.1039C17.591 12.1039 17 11.5065 17 10.8232C17 10.14 17.591 9.5426 18.375 9.5426C19.159 9.5426 19.75 10.14 19.75 10.8232Z" stroke="#287EFF"/>
</svg>
