<svg width="28" height="16" viewBox="0 0 28 16" fill="none" xmlns="http://www.w3.org/2000/svg">
<path d="M10.3748 10.846C9.08239 10.846 8.03792 11.8773 8.03792 13.149C8.03792 14.4169 9.08239 15.4483 10.3748 15.4483C11.6673 15.4483 12.7117 14.4169 12.7117 13.149C12.7117 11.8773 11.6673 10.846 10.3748 10.846ZM10.3748 14.2986C9.72858 14.2986 9.20633 13.781 9.20633 13.1489C9.20633 12.5131 9.72858 11.9992 10.3748 11.9992C11.021 11.9992 11.5433 12.5131 11.5433 13.1489C11.5432 13.781 11.021 14.2986 10.3748 14.2986ZM28 9.14487V11.6001C28 12.2125 27.4954 12.709 26.8729 12.709H25.6669C25.4489 11.2377 24.1603 10.1066 22.6048 10.1066C21.0532 10.1066 19.7645 11.2378 19.5466 12.709H13.4338C13.2159 11.2377 11.9272 10.1066 10.3756 10.1066C8.82389 10.1066 7.5352 11.2378 7.31733 12.709H5.80698C5.18448 12.709 4.67989 12.2126 4.67989 11.6001V9.14487H28ZM22.6078 10.846C21.3154 10.846 20.2672 11.8773 20.2672 13.149C20.2672 14.4169 21.3155 15.4483 22.6078 15.4483C23.8965 15.4483 24.9447 14.4169 24.9447 13.149C24.9447 11.8773 23.8965 10.846 22.6078 10.846ZM22.6078 14.2986C21.9616 14.2986 21.4394 13.781 21.4394 13.1489C21.4394 12.5131 21.9616 11.9992 22.6078 11.9992C23.2503 11.9992 23.7763 12.5131 23.7763 13.1489C23.7763 13.781 23.2503 14.2986 22.6078 14.2986ZM27.5559 6.67244L23.1264 2.36215C22.8446 2.08859 22.4651 1.93333 22.0706 1.93333H19.8352V1.10896C19.8352 0.495352 19.3317 0 18.7081 0H5.8062C5.18627 0 4.67911 0.495396 4.67911 1.10896V1.28272L0.105229 1.80139L8.20995 2.83981L0 3.64226L8.18103 4.78669L0 5.48461L4.67939 6.35296L4.67907 8.53185H27.9992V7.72225C27.9992 7.32669 27.8377 6.94969 27.5559 6.67244ZM25.6248 6.81658H21.338C21.2403 6.81658 21.1614 6.73897 21.1614 6.64286V3.38612C21.1614 3.29001 21.2403 3.21236 21.338 3.21236H22.1533C22.1983 3.21236 22.2434 3.23086 22.2772 3.26044L25.745 6.51718C25.8614 6.62436 25.7825 6.81658 25.6248 6.81658Z" fill="#FF4949"/>
</svg>
