<svg width="32" height="32" viewBox="0 0 32 32" fill="none" xmlns="http://www.w3.org/2000/svg">
<path d="M13.5999 4H12C8.22876 4 6.34315 4 5.17157 5.17157C4 6.34315 4 8.22876 4 12V13.6" stroke="#287EFF"/>
<path d="M18.4001 28L20 28C23.7712 28 25.6569 28 26.8284 26.8284C28 25.6569 28 23.7712 28 20L28 18.4" stroke="#287EFF"/>
<path d="M4 18.4L4 20C4 23.7712 4 25.6569 5.17157 26.8284C6.34315 28 8.22876 28 12 28L13.5999 28" stroke="#287EFF"/>
<path d="M13.4734 14.9602C13.4185 15.015 13.3771 15.082 13.3526 15.1556L11.9384 19.3982C11.8785 19.5779 11.9252 19.776 12.0591 19.9099C12.1931 20.0438 12.3911 20.0906 12.5708 20.0307L16.8135 18.6165C16.8871 18.5919 16.954 18.5506 17.0089 18.4957L28.3226 7.18198C28.5179 6.98672 28.5179 6.67014 28.3226 6.47487L25.4942 3.64645C25.2989 3.45118 24.9823 3.45118 24.7871 3.64645L13.4734 14.9602Z" stroke="#287EFF" stroke-linejoin="round"/>
</svg>
