<svg width="21" height="19" viewBox="0 0 21 19" fill="none" xmlns="http://www.w3.org/2000/svg">
<path d="M10.4023 3.33607L10.8 3.85805L11.1978 3.33607C11.5541 2.86841 12.1669 2.14779 12.9466 1.5482C13.7306 0.94536 14.6372 0.5 15.5917 0.5C18.1318 0.5 20.3 2.85733 20.3 5.88543C20.3 7.25365 19.8457 8.55131 19.0289 9.55152L18.9974 9.59009L18.9812 9.62077L18.9808 9.62119L18.971 9.63197C18.9122 9.69713 18.859 9.74884 18.7976 9.80685L18.7975 9.80681L18.7925 9.81171L18.7103 9.89147L18.7103 9.89143L18.705 9.89666L10.8 17.7988L3.15956 10.1741L3.12734 10.1184L3.07095 10.0667C1.95047 9.03809 1.30005 7.52477 1.30005 5.88543C1.30005 2.85733 3.46833 0.5 6.00837 0.5C6.96292 0.5 7.86951 0.94536 8.65347 1.5482C9.4332 2.14779 10.046 2.86841 10.4023 3.33607Z" stroke="#C4C4C4"/>
</svg>
