<svg width="32" height="32" viewBox="0 0 32 32" fill="none" xmlns="http://www.w3.org/2000/svg">
<path d="M15.6023 10.3361L16 10.8581L16.3977 10.3361C16.754 9.86841 17.3669 9.14779 18.1466 8.5482C18.9305 7.94536 19.8371 7.5 20.7917 7.5C23.3318 7.5 25.5 9.85733 25.5 12.8854C25.5 14.2537 25.0456 15.5513 24.2289 16.5515L24.1974 16.5901L24.1811 16.6208L24.1807 16.6212L24.171 16.632C24.1121 16.6971 24.059 16.7488 23.9975 16.8069L23.9975 16.8068L23.9924 16.8117L23.9102 16.8915L23.9102 16.8914L23.905 16.8967L16 24.7988L8.35951 17.1741L8.32729 17.1184L8.2709 17.0667C7.15042 16.0381 6.5 14.5248 6.5 12.8854C6.5 9.85733 8.66828 7.5 11.2083 7.5C12.1629 7.5 13.0695 7.94536 13.8534 8.5482C14.6331 9.14779 15.246 9.86841 15.6023 10.3361Z" stroke="#287EFF"/>
</svg>
