<svg width="20" height="20" viewBox="0 0 20 20" fill="none" xmlns="http://www.w3.org/2000/svg">
<g clip-path="url(#clip0)">
<path d="M9.52687 4.75C6.82612 4.75 4.63965 6.99431 4.63965 9.76103C4.63965 12.5302 6.8285 14.7721 9.52687 14.7721C12.2276 14.7721 14.4141 12.5278 14.4141 9.76103C14.4141 6.99186 12.2252 4.75 9.52687 4.75ZM9.52687 13.0136C7.77372 13.0136 6.3547 11.5578 6.3547 9.76103C6.3547 7.96429 7.77452 6.5085 9.52687 6.5085C11.2792 6.5085 12.699 7.96429 12.699 9.76103C12.6998 11.5578 11.28 13.0136 9.52687 13.0136Z" fill="white"/>
<path d="M13.4508 0.0613454C11.6984 -0.0224702 7.358 -0.0184015 5.60406 0.0613454C4.06281 0.135396 2.70331 0.517042 1.6073 1.64082C-0.224419 3.51894 0.00970402 6.04968 0.00970402 9.76117C0.00970402 13.5597 -0.196642 16.0319 1.6073 17.8815C3.44616 19.7661 5.95008 19.5196 9.52701 19.5196C13.1968 19.5196 14.4634 19.522 15.761 19.0069C17.5253 18.3047 18.857 16.6877 18.9872 13.7835C19.0697 11.9859 19.0649 7.53639 18.9872 5.73802C18.83 2.30972 17.0356 0.230604 13.4508 0.0613454ZM16.2245 16.6389C15.0237 17.8701 13.3579 17.7603 9.50399 17.7603C5.5358 17.7603 3.94456 17.8205 2.78347 16.6267C1.44619 15.2621 1.68825 13.0707 1.68825 9.74815C1.68825 5.25221 1.23826 2.01433 5.63898 1.78323C6.65007 1.74661 6.94768 1.7344 9.49288 1.7344L9.52859 1.75881C13.7579 1.75881 17.0761 1.30475 17.2753 5.81614C17.3205 6.84552 17.3308 7.15475 17.3308 9.76035C17.3301 13.7819 17.4047 15.4232 16.2245 16.6389Z" fill="white"/>
<path d="M14.6079 5.7233C15.2386 5.7233 15.7499 5.19903 15.7499 4.55232C15.7499 3.90561 15.2386 3.38135 14.6079 3.38135C13.9771 3.38135 13.4658 3.90561 13.4658 4.55232C13.4658 5.19903 13.9771 5.7233 14.6079 5.7233Z" fill="white"/>
</g>
<defs>
<clipPath id="clip0">
<rect width="19.0473" height="19.5302" fill="white"/>
</clipPath>
</defs>
</svg>
