<svg width="26" height="16" viewBox="0 0 26 16" fill="none" xmlns="http://www.w3.org/2000/svg">
<path d="M19.7359 4.46273L24.3825 7.58541C24.6773 7.78354 24.6773 8.21729 24.3824 8.41541L19.7354 11.5381C15.7146 14.24 10.4634 14.2593 6.42282 11.5869L1.63054 8.41744C1.33164 8.21976 1.33163 7.78107 1.63052 7.58337L6.42232 4.41387C10.4632 1.74109 15.7148 1.76036 19.7359 4.46273Z" stroke="#C4C4C4"/>
<path d="M18.5 8C18.5 11.0376 16.0376 13.5 13 13.5C9.96243 13.5 7.5 11.0376 7.5 8C7.5 4.96244 9.96243 2.50001 13 2.50001C16.0376 2.50001 18.5 4.96244 18.5 8Z" stroke="#C4C4C4"/>
<path d="M15.0492 7.95008C15.0492 9.08224 14.1314 10 12.9992 10C11.867 10 10.9492 9.08224 10.9492 7.95008C10.9492 6.81793 11.867 5.90012 12.9992 5.90012C14.1314 5.90012 15.0492 6.81793 15.0492 7.95008Z" stroke="#C4C4C4"/>
</svg>
