<svg width="32" height="32" viewBox="0 0 32 32" fill="none" xmlns="http://www.w3.org/2000/svg">
<rect x="6.5" y="4.5" width="19" height="23" rx="1.5" stroke="white"/>
<path d="M9.13631 23.064C8.89631 23.064 8.69898 22.9947 8.54431 22.856C8.39498 22.712 8.32031 22.536 8.32031 22.328C8.32031 22.1147 8.39498 21.936 8.54431 21.792C8.69898 21.648 8.89631 21.576 9.13631 21.576C9.37098 21.576 9.56298 21.648 9.71231 21.792C9.86698 21.936 9.94431 22.1147 9.94431 22.328C9.94431 22.536 9.86698 22.712 9.71231 22.856C9.56298 22.9947 9.37098 23.064 9.13631 23.064Z" fill="white"/>
<path d="M12.2021 19.168C12.3355 18.96 12.5195 18.792 12.7541 18.664C12.9888 18.536 13.2635 18.472 13.5781 18.472C13.9461 18.472 14.2795 18.5653 14.5781 18.752C14.8768 18.9387 15.1115 19.2053 15.2821 19.552C15.4581 19.8987 15.5461 20.3013 15.5461 20.76C15.5461 21.2187 15.4581 21.624 15.2821 21.976C15.1115 22.3227 14.8768 22.592 14.5781 22.784C14.2795 22.9707 13.9461 23.064 13.5781 23.064C13.2688 23.064 12.9941 23 12.7541 22.872C12.5195 22.744 12.3355 22.5787 12.2021 22.376L12.2021 25.128H10.8341L10.8341 18.536H12.2021V19.168ZM14.1541 20.76C14.1541 20.4187 14.0581 20.152 13.8661 19.96C13.6795 19.7627 13.4475 19.664 13.1701 19.664C12.8981 19.664 12.6661 19.7627 12.4741 19.96C12.2875 20.1573 12.1941 20.4267 12.1941 20.768C12.1941 21.1093 12.2875 21.3787 12.4741 21.576C12.6661 21.7733 12.8981 21.872 13.1701 21.872C13.4421 21.872 13.6741 21.7733 13.8661 21.576C14.0581 21.3733 14.1541 21.1013 14.1541 20.76Z" fill="white"/>
<path d="M16.0718 20.76C16.0718 20.3013 16.1571 19.8987 16.3278 19.552C16.5038 19.2053 16.7411 18.9387 17.0398 18.752C17.3385 18.5653 17.6718 18.472 18.0398 18.472C18.3331 18.472 18.5998 18.5333 18.8398 18.656C19.0851 18.7787 19.2771 18.944 19.4158 19.152V17.08L20.7838 17.08V23H19.4158V22.36C19.2878 22.5733 19.1038 22.744 18.8638 22.872C18.6291 23 18.3545 23.064 18.0398 23.064C17.6718 23.064 17.3385 22.9707 17.0398 22.784C16.7411 22.592 16.5038 22.3227 16.3278 21.976C16.1571 21.624 16.0718 21.2187 16.0718 20.76ZM19.4158 20.768C19.4158 20.4267 19.3198 20.1573 19.1278 19.96C18.9411 19.7627 18.7118 19.664 18.4398 19.664C18.1678 19.664 17.9358 19.7627 17.7438 19.96C17.5571 20.152 17.4638 20.4187 17.4638 20.76C17.4638 21.1013 17.5571 21.3733 17.7438 21.576C17.9358 21.7733 18.1678 21.872 18.4398 21.872C18.7118 21.872 18.9411 21.7733 19.1278 21.576C19.3198 21.3787 19.4158 21.1093 19.4158 20.768Z" fill="white"/>
<path d="M24.0935 19.672H23.3575V23L21.9895 23V19.672H21.4935V18.536H21.9895V18.408C21.9895 17.8587 22.1468 17.4427 22.4615 17.16C22.7762 16.872 23.2375 16.728 23.8455 16.728C23.9468 16.728 24.0215 16.7307 24.0695 16.736V17.896C23.8082 17.88 23.6242 17.9173 23.5175 18.008C23.4108 18.0987 23.3575 18.2613 23.3575 18.496V18.536H24.0935V19.672Z" fill="white"/>
</svg>
