<svg width="32" height="32" viewBox="0 0 32 32" fill="none" xmlns="http://www.w3.org/2000/svg">
<g clip-path="url(#clip0)">
<path d="M9.99983 14.6664C11.5555 17.778 14.222 20.3331 17.3332 21.9995L19.7775 19.5551C20.1109 19.2217 20.5554 19.1108 20.8886 19.3331C22.1109 19.7774 23.4441 19.9997 24.8886 19.9997C25.5553 19.9997 25.9996 20.4437 25.9996 21.1106V24.8885C25.9996 25.5551 25.5553 26 24.8886 26C14.4443 26 6 17.5556 6 7.11093C6 6.44399 6.44447 6 7.11105 6H10.9999C11.6665 6 12.111 6.44399 12.111 7.11093C12.111 8.44409 12.3332 9.7776 12.7777 11.1111C12.8887 11.4442 12.7777 11.8885 12.5555 12.2217L9.99983 14.6664Z" fill="#C4C4C4"/>
</g>
<defs>
<clipPath id="clip0">
<rect width="19.9996" height="20" fill="white" transform="translate(6 6)"/>
</clipPath>
</defs>
</svg>
