<svg width="16" height="24" viewBox="0 0 16 24" fill="none" xmlns="http://www.w3.org/2000/svg">
<path d="M0.634795 22.8746H1.21765V21.5331C1.21765 21.2223 1.50197 20.9704 1.85257 20.9704H2.54121V17.4577V16.4718C2.54121 15.0198 3.36698 13.6882 4.7501 12.9098L6.34184 12.014L6.25257 11.9355L4.75022 11.09C3.36711 10.3116 2.54133 8.98 2.54133 7.52801V3.02945H1.8527C1.5021 3.02945 1.21778 2.77761 1.21778 2.4668V1.12531H0.634922C0.284318 1.12531 9.53674e-07 0.873468 9.53674e-07 0.562656C9.53674e-07 0.251845 0.284318 0 0.634922 0H1.8527H14.1473H15.3651C15.7157 0 16 0.251845 16 0.562656C16 0.873468 15.7157 1.12531 15.3651 1.12531H14.7822V2.4668C14.7822 2.77761 14.4979 3.02945 14.1473 3.02945H13.4587V7.52812C13.4587 8.98011 12.6329 10.3117 11.2499 11.0901L9.9341 11.8306L9.68241 12.0278L11.2499 12.9099C12.633 13.6883 13.4587 15.0199 13.4587 16.4719V17.4578V20.9705H14.1473C14.4979 20.9705 14.7822 21.2224 14.7822 21.5332V22.8747H15.3651C15.7157 22.8747 16 23.1265 16 23.4373C16 23.7482 15.7157 24 15.3651 24H14.1473H1.8527H0.634922C0.284318 24 9.53674e-07 23.7482 9.53674e-07 23.4373C-0.000125885 23.1265 0.284192 22.8746 0.634795 22.8746ZM3.81105 16.4719V16.6306L7.36495 15.3865V12.7612C7.32775 12.7886 7.28838 12.8144 7.24673 12.8378L5.43073 13.8598C4.41664 14.4306 3.81105 15.4071 3.81105 16.4719ZM3.81105 3.02945V7.52812C3.81105 8.0021 3.93168 8.4583 4.15429 8.86938H11.8455C12.0681 8.4583 12.1887 8.0021 12.1887 7.52801V3.02945H3.81105ZM10.5689 13.8598L8.75314 12.8379C8.71149 12.8144 8.67213 12.7887 8.63479 12.7613V15.3875L12.1887 16.6308V16.4719C12.1887 15.4071 11.5832 14.4306 10.5689 13.8598Z" fill="#287EFF"/>
</svg>
