<svg width="32" height="32" viewBox="0 0 32 32" fill="none" xmlns="http://www.w3.org/2000/svg">
<path d="M14.2857 12V15.797C14.2857 16.2179 14.1529 16.628 13.9063 16.9691L12.9119 18.3441C12.1597 19.3841 10.9542 20 9.67068 20H7.71429C6.60972 20 5.71429 19.1046 5.71429 18V13.7778M14.2857 12H7.49206C6.51022 12 5.71429 12.7959 5.71429 13.7778V13.7778M14.2857 12H17.7143M17.7143 12V15.797C17.7143 16.2179 17.8471 16.628 18.0937 16.9691L19.0881 18.3441C19.8403 19.3841 21.0458 20 22.3293 20H24.2857C25.3903 20 26.2857 19.1046 26.2857 18V13.7778M17.7143 12H24.5079C25.4898 12 26.2857 12.7959 26.2857 13.7778V13.7778M26.2857 13.7778H28M5.71429 13.7778H4" stroke="white"/>
</svg>
