<svg width="32" height="32" viewBox="0 0 32 32" fill="none" xmlns="http://www.w3.org/2000/svg">
<path d="M9.1751 24.5275L9.17571 24.5272L12.6079 22.655L12.6083 22.6548C13.0797 22.3971 13.3728 21.9034 13.3728 21.3662V20.11V19.9421L13.2715 19.8083C13.0226 19.4793 12.3428 18.4983 12.0147 17.2131L11.9741 17.054L11.8471 16.9499C11.5944 16.7429 11.4486 16.4384 11.4486 16.1122V14.5735C11.4486 14.3198 11.5422 14.0697 11.7129 13.871L11.8336 13.7305V13.5452V11.5194V11.4943L11.8311 11.4694C11.8126 11.2848 11.7477 10.1921 12.5269 9.30369L12.527 9.30354C13.1959 8.54027 14.324 8.09888 15.9999 8.09888C17.6757 8.09888 18.8037 8.54027 19.4726 9.30389L19.4728 9.30413C20.2521 10.1926 20.1871 11.2843 20.1686 11.4701L20.1661 11.4949V11.5198V13.5456V13.7312L20.2871 13.8718C20.4578 14.07 20.5511 14.3199 20.5511 14.5739V16.1127C20.5511 16.5349 20.3101 16.9088 19.9315 17.0887L19.7421 17.1787L19.6735 17.3769C19.4103 18.1379 19.0502 18.8426 18.6029 19.4745C18.5151 19.598 18.4316 19.7084 18.3542 19.804L18.2427 19.9416V20.1187V21.4022C18.2427 21.9601 18.5546 22.4649 19.0539 22.7145L19.0539 22.7145L22.7285 24.5516C22.7285 24.5516 22.7286 24.5516 22.7286 24.5516C22.7655 24.5702 22.8027 24.5903 22.8404 24.6119V25.2613C22.7647 25.3195 22.6644 25.3941 22.5405 25.4803C22.2215 25.7024 21.7476 26.0014 21.1372 26.3012C19.9158 26.901 18.1562 27.5 15.9999 27.5C13.8453 27.5 12.0741 26.889 10.8397 26.2761C10.223 25.9699 9.74268 25.6644 9.41878 25.4373C9.29075 25.3475 9.18736 25.2701 9.10986 25.21V24.5645C9.1318 24.5515 9.15354 24.5392 9.1751 24.5275Z" stroke="#287EFF"/>
<circle cx="16" cy="16" r="11.5" stroke="#287EFF"/>
</svg>
