<svg width="24" height="24" viewBox="0 0 24 24" fill="none" xmlns="http://www.w3.org/2000/svg">
<rect width="24" height="24" fill="white"/>
<path d="M15.054 18.7145L15.054 18.7145L18.7287 20.5516C18.7287 20.5516 18.7287 20.5516 18.7287 20.5516C18.7656 20.5702 18.8028 20.5903 18.8405 20.6119V21.2613C18.7648 21.3195 18.6645 21.3941 18.5406 21.4803C18.2216 21.7024 17.7477 22.0014 17.1373 22.3012C15.9159 22.901 14.1563 23.5 12 23.5C9.8454 23.5 8.0742 22.889 6.83985 22.2761C6.2231 21.9699 5.7428 21.6644 5.4189 21.4373C5.29087 21.3475 5.18748 21.2701 5.10999 21.21V20.5645C5.13192 20.5515 5.15366 20.5392 5.17522 20.5275L5.17583 20.5272L8.608 18.655L8.60843 18.6548C9.07981 18.3971 9.37296 17.9034 9.37296 17.3662V16.11V15.9421L9.27166 15.8083C9.0227 15.4793 8.34296 14.4983 8.01485 13.2131L7.97424 13.054L7.84723 12.9499C7.5945 12.7429 7.44874 12.4384 7.44874 12.1122V10.5735C7.44874 10.3198 7.54228 10.0697 7.71298 9.87103L7.83376 9.73048V9.54516V7.51937V7.49434L7.83126 7.46943C7.81272 7.28476 7.74777 6.19214 8.52701 5.30369L8.52714 5.30354C9.19604 4.54027 10.3241 4.09888 12 4.09888C13.6758 4.09888 14.8038 4.54027 15.4727 5.30389L15.4729 5.30413C16.2522 6.19258 16.1873 7.28432 16.1687 7.47005L16.1662 7.49487V7.51981V9.5456V9.73116L16.2873 9.87179C16.4579 10.07 16.5512 10.3199 16.5512 10.5739V12.1127C16.5512 12.5349 16.3102 12.9088 15.9316 13.0887L15.7422 13.1787L15.6737 13.3769C15.4104 14.1379 15.0503 14.8426 14.603 15.4745C14.5152 15.598 14.4317 15.7084 14.3543 15.804L14.2428 15.9416V16.1187V17.4022C14.2428 17.9601 14.5547 18.4649 15.054 18.7145Z" stroke="#287EFF"/>
<circle cx="12" cy="12" r="11.5" stroke="#287EFF"/>
</svg>
