<svg width="26" height="16" viewBox="0 0 26 16" fill="none" xmlns="http://www.w3.org/2000/svg">
<path d="M19.7359 4.46273L24.3825 7.58541C24.6773 7.78354 24.6773 8.21729 24.3824 8.41541L19.7354 11.5381C15.7146 14.24 10.4634 14.2593 6.42282 11.5869L1.63054 8.41744C1.33164 8.21976 1.33163 7.78107 1.63052 7.58337L6.42232 4.41387C10.4632 1.74109 15.7148 1.76036 19.7359 4.46273Z" stroke="#C4C4C4"/>
<path d="M18.5 8C18.5 11.0376 16.0376 13.5 13 13.5C9.96243 13.5 7.5 11.0376 7.5 8C7.5 4.96243 9.96243 2.5 13 2.5C16.0376 2.5 18.5 4.96243 18.5 8Z" stroke="#C4C4C4"/>
<path d="M15.05 7.9499C15.05 9.08209 14.1321 9.99991 13 9.99991C11.8678 9.99991 10.95 9.08209 10.95 7.9499C10.95 6.81772 11.8678 5.8999 13 5.8999C14.1321 5.8999 15.05 6.81772 15.05 7.9499Z" stroke="#C4C4C4"/>
</svg>
