<svg width="24" height="24" viewBox="0 0 24 24" fill="none" xmlns="http://www.w3.org/2000/svg">
<g clip-path="url(#clip0)">
<path d="M5.63959 8.75484V6.2967C5.63959 6.2967 5.0114 1 12 1C18.9886 1 18.3604 6.2967 18.3604 6.2967V8.75484" stroke="white"/>
<mask id="path-2-inside-1" fill="white">
<path fill-rule="evenodd" clip-rule="evenodd" d="M0 6.90579H24V20C24 22.2091 22.2091 24 20 24H4C1.79086 24 0 22.2091 0 20V6.90579ZM5.625 11.7426C6.12095 11.7426 6.5 11.3494 6.5 10.8926C6.5 10.4358 6.12095 10.0426 5.625 10.0426C5.12905 10.0426 4.75 10.4358 4.75 10.8926C4.75 11.3494 5.12905 11.7426 5.625 11.7426ZM5.625 12.7426C6.66053 12.7426 7.5 11.9143 7.5 10.8926C7.5 9.87088 6.66053 9.0426 5.625 9.0426C4.58947 9.0426 3.75 9.87088 3.75 10.8926C3.75 11.9143 4.58947 12.7426 5.625 12.7426ZM19.2498 10.9176C19.2498 11.4009 18.858 11.7926 18.3748 11.7926C17.8915 11.7926 17.4998 11.4009 17.4998 10.9176C17.4998 10.4344 17.8915 10.0426 18.3748 10.0426C18.858 10.0426 19.2498 10.4344 19.2498 10.9176ZM20.2498 10.9176C20.2498 11.9531 19.4103 12.7926 18.3748 12.7926C17.3392 12.7926 16.4998 11.9531 16.4998 10.9176C16.4998 9.88207 17.3392 9.0426 18.3748 9.0426C19.4103 9.0426 20.2498 9.88207 20.2498 10.9176Z"/>
</mask>
<path fill-rule="evenodd" clip-rule="evenodd" d="M0 6.90579H24V20C24 22.2091 22.2091 24 20 24H4C1.79086 24 0 22.2091 0 20V6.90579ZM5.625 11.7426C6.12095 11.7426 6.5 11.3494 6.5 10.8926C6.5 10.4358 6.12095 10.0426 5.625 10.0426C5.12905 10.0426 4.75 10.4358 4.75 10.8926C4.75 11.3494 5.12905 11.7426 5.625 11.7426ZM5.625 12.7426C6.66053 12.7426 7.5 11.9143 7.5 10.8926C7.5 9.87088 6.66053 9.0426 5.625 9.0426C4.58947 9.0426 3.75 9.87088 3.75 10.8926C3.75 11.9143 4.58947 12.7426 5.625 12.7426ZM19.2498 10.9176C19.2498 11.4009 18.858 11.7926 18.3748 11.7926C17.8915 11.7926 17.4998 11.4009 17.4998 10.9176C17.4998 10.4344 17.8915 10.0426 18.3748 10.0426C18.858 10.0426 19.2498 10.4344 19.2498 10.9176ZM20.2498 10.9176C20.2498 11.9531 19.4103 12.7926 18.3748 12.7926C17.3392 12.7926 16.4998 11.9531 16.4998 10.9176C16.4998 9.88207 17.3392 9.0426 18.3748 9.0426C19.4103 9.0426 20.2498 9.88207 20.2498 10.9176Z" fill="white"/>
<path d="M24 6.90579H25V5.90579H24V6.90579ZM0 6.90579V5.90579H-1V6.90579H0ZM24 5.90579H0V7.90579H24V5.90579ZM25 20V6.90579H23V20H25ZM20 25C22.7614 25 25 22.7614 25 20H23C23 21.6568 21.6569 23 20 23V25ZM4 25H20V23H4V25ZM-1 20C-1 22.7614 1.23858 25 4 25V23C2.34315 23 1 21.6568 1 20H-1ZM-1 6.90579V20H1V6.90579H-1ZM5.5 10.8926C5.5 10.7889 5.5769 10.7426 5.625 10.7426V12.7426C6.66499 12.7426 7.5 11.9099 7.5 10.8926H5.5ZM5.625 11.0426C5.5769 11.0426 5.5 10.9963 5.5 10.8926H7.5C7.5 9.87529 6.66499 9.0426 5.625 9.0426V11.0426ZM5.75 10.8926C5.75 10.9963 5.6731 11.0426 5.625 11.0426V9.0426C4.585 9.0426 3.75 9.87529 3.75 10.8926H5.75ZM5.625 10.7426C5.6731 10.7426 5.75 10.7889 5.75 10.8926H3.75C3.75 11.9099 4.585 12.7426 5.625 12.7426V10.7426ZM6.5 10.8926C6.5 11.3494 6.12095 11.7426 5.625 11.7426V13.7426C7.20012 13.7426 8.5 12.4792 8.5 10.8926H6.5ZM5.625 10.0426C6.12095 10.0426 6.5 10.4358 6.5 10.8926H8.5C8.5 9.30598 7.20012 8.0426 5.625 8.0426V10.0426ZM4.75 10.8926C4.75 10.4358 5.12905 10.0426 5.625 10.0426V8.0426C4.04988 8.0426 2.75 9.30598 2.75 10.8926H4.75ZM5.625 11.7426C5.12905 11.7426 4.75 11.3494 4.75 10.8926H2.75C2.75 12.4792 4.04988 13.7426 5.625 13.7426V11.7426ZM18.3748 12.7926C19.4103 12.7926 20.2498 11.9531 20.2498 10.9176H18.2498C18.2498 10.8486 18.3057 10.7926 18.3748 10.7926V12.7926ZM16.4998 10.9176C16.4998 11.9531 17.3392 12.7926 18.3748 12.7926V10.7926C18.4438 10.7926 18.4998 10.8486 18.4998 10.9176H16.4998ZM18.3748 9.0426C17.3392 9.0426 16.4998 9.88207 16.4998 10.9176H18.4998C18.4998 10.9866 18.4438 11.0426 18.3748 11.0426V9.0426ZM20.2498 10.9176C20.2498 9.88207 19.4103 9.0426 18.3748 9.0426V11.0426C18.3057 11.0426 18.2498 10.9866 18.2498 10.9176H20.2498ZM18.3748 13.7926C19.9626 13.7926 21.2498 12.5054 21.2498 10.9176H19.2498C19.2498 11.4009 18.858 11.7926 18.3748 11.7926V13.7926ZM15.4998 10.9176C15.4998 12.5054 16.7869 13.7926 18.3748 13.7926V11.7926C17.8915 11.7926 17.4998 11.4009 17.4998 10.9176H15.4998ZM18.3748 8.0426C16.7869 8.0426 15.4998 9.32978 15.4998 10.9176H17.4998C17.4998 10.4344 17.8915 10.0426 18.3748 10.0426V8.0426ZM21.2498 10.9176C21.2498 9.32978 19.9626 8.0426 18.3748 8.0426V10.0426C18.858 10.0426 19.2498 10.4344 19.2498 10.9176H21.2498Z" fill="white" mask="url(#path-2-inside-1)"/>
</g>
<defs>
<clipPath id="clip0">
<rect width="24" height="24" fill="white"/>
</clipPath>
</defs>
</svg>
