<svg width="24" height="10" viewBox="0 0 24 10" fill="none" xmlns="http://www.w3.org/2000/svg">
<path d="M10.2857 1V4.79702C10.2857 5.21788 10.1529 5.62803 9.90631 5.96905L8.91187 7.34407C8.15972 8.38409 6.95418 9 5.67068 9H3.71429C2.60972 9 1.71429 8.10457 1.71429 7V2.77778M10.2857 1H3.49206C2.51022 1 1.71429 1.79594 1.71429 2.77778V2.77778M10.2857 1H13.7143M13.7143 1V4.79702C13.7143 5.21788 13.8471 5.62803 14.0937 5.96905L15.0881 7.34408C15.8403 8.38409 17.0458 9 18.3293 9H20.2857C21.3903 9 22.2857 8.10457 22.2857 7V2.77778M13.7143 1H20.5079C21.4898 1 22.2857 1.79594 22.2857 2.77778V2.77778M22.2857 2.77778H24M1.71429 2.77778H0" stroke="white"/>
</svg>
