<svg width="24" height="24" viewBox="0 0 24 24" fill="none" xmlns="http://www.w3.org/2000/svg">
<path d="M11.6023 6.33607L12 6.85805L12.3977 6.33607C12.754 5.86841 13.3669 5.14779 14.1466 4.5482C14.9305 3.94536 15.8371 3.5 16.7917 3.5C19.3318 3.5 21.5 5.85733 21.5 8.88543C21.5 10.2537 21.0456 11.5513 20.2289 12.5515L20.1974 12.5901L20.1811 12.6208L20.1807 12.6212L20.171 12.632C20.1121 12.6971 20.059 12.7488 19.9975 12.8069L19.9975 12.8068L19.9924 12.8117L19.9102 12.8915L19.9102 12.8914L19.905 12.8967L12 20.7988L4.35951 13.1741L4.32729 13.1184L4.2709 13.0667C3.15042 12.0381 2.5 10.5248 2.5 8.88543C2.5 5.85733 4.66828 3.5 7.20832 3.5C8.16287 3.5 9.06946 3.94536 9.85342 4.5482C10.6331 5.14779 11.246 5.86841 11.6023 6.33607Z" fill="white" stroke="white"/>
</svg>
